 0
SECTION
 2
HEADER
 0
ENDSEC
 0
SECTION
 2
TABLES
 0
ENDSEC
 0
SECTION
 2
BLOCKS
0
BLOCK
70
0
2
LQFP-48_7X7X1_6-M
10
0
20
0
30
0
999
##### Poly 1 ####
0
POLYLINE
5
36
70
1
8
2
6
CONTINUOUS
66
1
10
0
20
0
30
0
39
62.99213
0
VERTEX
8
2
6
CONTINUOUS
 10
-219.1653
 20
-61.3976
 30
0
0
VERTEX
8
2
6
CONTINUOUS
 10
-219.1653
 20
-76.3976
 30
0
0
VERTEX
8
2
6
CONTINUOUS
 10
-209.1653
 20
-76.3976
 30
0
0
VERTEX
8
2
6
CONTINUOUS
 10
-209.1653
 20
-61.3976
 30
0
0
SEQEND
0
3DFACE
5
49
8
0
6
CONTINUOUS
 10
-219.1653
 20
-61.3976
 30
62.99213
 11
-219.1653
 21
-76.3976
 31
62.99213
 12
-209.1653
 22
-76.3976
 32
62.99213
 13
-209.1653
 23
-61.3976
 33
62.99213
0
3DFACE
5
49
8
0
6
CONTINUOUS
 10
-219.1653
 20
-61.3976
 30
0
 11
-219.1653
 21
-76.3976
 31
0
 12
-209.1653
 22
-76.3976
 32
0
 13
-209.1653
 23
-61.3976
 33
0
999
##### Poly 14 ####
0
POLYLINE
5
36
70
1
8
2
6
CONTINUOUS
66
1
10
0
20
0
30
0
39
62.99213
0
VERTEX
8
2
6
CONTINUOUS
 10
22.0276
 20
-209.1653
 30
0
0
VERTEX
8
2
6
CONTINUOUS
 10
22.0276
 20
-219.1653
 30
0
0
VERTEX
8
2
6
CONTINUOUS
 10
37.0276
 20
-219.1653
 30
0
0
VERTEX
8
2
6
CONTINUOUS
 10
37.0276
 20
-209.1653
 30
0
0
SEQEND
0
3DFACE
5
49
8
0
6
CONTINUOUS
 10
22.0276
 20
-209.1653
 30
62.99213
 11
22.0276
 21
-219.1653
 31
62.99213
 12
37.0276
 22
-219.1653
 32
62.99213
 13
37.0276
 23
-209.1653
 33
62.99213
0
3DFACE
5
49
8
0
6
CONTINUOUS
 10
22.0276
 20
-209.1653
 30
0
 11
22.0276
 21
-219.1653
 31
0
 12
37.0276
 22
-219.1653
 32
0
 13
37.0276
 23
-209.1653
 33
0
999
##### Poly 27 ####
0
POLYLINE
5
36
70
1
8
2
6
CONTINUOUS
66
1
10
0
20
0
30
0
39
62.99213
0
VERTEX
8
2
6
CONTINUOUS
 10
219.1653
 20
-2.3425
 30
0
0
VERTEX
8
2
6
CONTINUOUS
 10
219.1653
 20
-17.3425
 30
0
0
VERTEX
8
2
6
CONTINUOUS
 10
209.1653
 20
-17.3425
 30
0
0
VERTEX
8
2
6
CONTINUOUS
 10
209.1653
 20
-2.3425
 30
0
0
SEQEND
0
3DFACE
5
49
8
0
6
CONTINUOUS
 10
219.1653
 20
-2.3425
 30
62.99213
 11
219.1653
 21
-17.3425
 31
62.99213
 12
209.1653
 22
-17.3425
 32
62.99213
 13
209.1653
 23
-2.3425
 33
62.99213
0
3DFACE
5
49
8
0
6
CONTINUOUS
 10
219.1653
 20
-2.3425
 30
0
 11
219.1653
 21
-17.3425
 31
0
 12
209.1653
 22
-17.3425
 32
0
 13
209.1653
 23
-2.3425
 33
0
999
##### Poly 40 ####
0
POLYLINE
5
36
70
1
8
2
6
CONTINUOUS
66
1
10
0
20
0
30
0
39
62.99213
0
VERTEX
8
2
6
CONTINUOUS
 10
41.7126
 20
209.1653
 30
0
0
VERTEX
8
2
6
CONTINUOUS
 10
41.7126
 20
219.1653
 30
0
0
VERTEX
8
2
6
CONTINUOUS
 10
56.7126
 20
219.1653
 30
0
0
VERTEX
8
2
6
CONTINUOUS
 10
56.7126
 20
209.1653
 30
0
0
SEQEND
0
3DFACE
5
49
8
0
6
CONTINUOUS
 10
41.7126
 20
209.1653
 30
62.99213
 11
41.7126
 21
219.1653
 31
62.99213
 12
56.7126
 22
219.1653
 32
62.99213
 13
56.7126
 23
209.1653
 33
62.99213
0
3DFACE
5
49
8
0
6
CONTINUOUS
 10
41.7126
 20
209.1653
 30
0
 11
41.7126
 21
219.1653
 31
0
 12
56.7126
 22
219.1653
 32
0
 13
56.7126
 23
209.1653
 33
0
999
##### Poly 121 ####
0
POLYLINE
5
36
70
1
8
8
6
CONTINUOUS
66
1
10
0
20
0
30
0
39
62.99213
0
VERTEX
8
8
6
CONTINUOUS
 10
-157.795257568359
 20
-157.795257568359
 30
0
0
VERTEX
8
8
6
CONTINUOUS
 10
-157.795257568359
 20
-148.267715454102
 30
0
0
VERTEX
8
8
6
CONTINUOUS
 10
-222.480316162109
 20
-148.267715454102
 30
0
0
VERTEX
8
8
6
CONTINUOUS
 10
-222.480316162109
 20
148.267715454102
 30
0
0
VERTEX
8
8
6
CONTINUOUS
 10
-157.795257568359
 20
148.267715454102
 30
0
0
VERTEX
8
8
6
CONTINUOUS
 10
-157.795257568359
 20
157.795257568359
 30
0
0
VERTEX
8
8
6
CONTINUOUS
 10
-148.267715454102
 20
157.795257568359
 30
0
0
VERTEX
8
8
6
CONTINUOUS
 10
-148.267715454102
 20
222.480316162109
 30
0
0
VERTEX
8
8
6
CONTINUOUS
 10
148.267715454102
 20
222.480316162109
 30
0
0
VERTEX
8
8
6
CONTINUOUS
 10
148.267715454102
 20
157.795257568359
 30
0
0
VERTEX
8
8
6
CONTINUOUS
 10
157.795257568359
 20
157.795257568359
 30
0
0
VERTEX
8
8
6
CONTINUOUS
 10
157.795257568359
 20
148.267715454102
 30
0
0
VERTEX
8
8
6
CONTINUOUS
 10
222.480316162109
 20
148.267715454102
 30
0
0
VERTEX
8
8
6
CONTINUOUS
 10
222.480316162109
 20
-148.267715454102
 30
0
0
VERTEX
8
8
6
CONTINUOUS
 10
157.795257568359
 20
-148.267715454102
 30
0
0
VERTEX
8
8
6
CONTINUOUS
 10
157.795257568359
 20
-157.795257568359
 30
0
0
VERTEX
8
8
6
CONTINUOUS
 10
148.267715454102
 20
-157.795257568359
 30
0
0
VERTEX
8
8
6
CONTINUOUS
 10
148.267715454102
 20
-222.480316162109
 30
0
0
VERTEX
8
8
6
CONTINUOUS
 10
-148.267715454102
 20
-222.480316162109
 30
0
0
VERTEX
8
8
6
CONTINUOUS
 10
-148.267715454102
 20
-157.795257568359
 30
0
0
SEQEND
0
3DFACE
5
49
8
0
6
CONTINUOUS
 10
-157.795257568359
 20
-157.795257568359
 30
62.99213
 11
-157.795257568359
 21
-148.267715454102
 31
62.99213
 12
-222.480316162109
 22
-148.267715454102
 32
62.99213
 13
-222.480316162109
 23
148.267715454102
 33
62.99213
 14
-157.795257568359
 24
148.267715454102
 34
62.99213
 15
-157.795257568359
 25
157.795257568359
 35
62.99213
 16
-148.267715454102
 26
157.795257568359
 36
62.99213
 17
-148.267715454102
 27
222.480316162109
 37
62.99213
 18
148.267715454102
 28
222.480316162109
 38
62.99213
 19
148.267715454102
 29
157.795257568359
 39
62.99213
 20
157.795257568359
 30
157.795257568359
 40
62.99213
 21
157.795257568359
 31
148.267715454102
 41
62.99213
 22
222.480316162109
 32
148.267715454102
 42
62.99213
 23
222.480316162109
 33
-148.267715454102
 43
62.99213
 24
157.795257568359
 34
-148.267715454102
 44
62.99213
 25
157.795257568359
 35
-157.795257568359
 45
62.99213
 26
148.267715454102
 36
-157.795257568359
 46
62.99213
 27
148.267715454102
 37
-222.480316162109
 47
62.99213
 28
-148.267715454102
 38
-222.480316162109
 48
62.99213
 29
-148.267715454102
 39
-157.795257568359
 49
62.99213
0
3DFACE
5
49
8
0
6
CONTINUOUS
 10
-157.795257568359
 20
-157.795257568359
 30
0
 11
-157.795257568359
 21
-148.267715454102
 31
0
 12
-222.480316162109
 22
-148.267715454102
 32
0
 13
-222.480316162109
 23
148.267715454102
 33
0
 14
-157.795257568359
 24
148.267715454102
 34
0
 15
-157.795257568359
 25
157.795257568359
 35
0
 16
-148.267715454102
 26
157.795257568359
 36
0
 17
-148.267715454102
 27
222.480316162109
 37
0
 18
148.267715454102
 28
222.480316162109
 38
0
 19
148.267715454102
 29
157.795257568359
 39
0
 20
157.795257568359
 30
157.795257568359
 40
0
 21
157.795257568359
 31
148.267715454102
 41
0
 22
222.480316162109
 32
148.267715454102
 42
0
 23
222.480316162109
 33
-148.267715454102
 43
0
 24
157.795257568359
 34
-148.267715454102
 44
0
 25
157.795257568359
 35
-157.795257568359
 45
0
 26
148.267715454102
 36
-157.795257568359
 46
0
 27
148.267715454102
 37
-222.480316162109
 47
0
 28
-148.267715454102
 38
-222.480316162109
 48
0
 29
-148.267715454102
 39
-157.795257568359
 49
0
999
##### Poly 148 ####
0
POLYLINE
5
36
70
1
8
23
6
CONTINUOUS
66
1
10
0
20
0
30
0
39
62.99213
0
VERTEX
8
23
6
CONTINUOUS
 10
-224.165298461914
 20
-224.165298461914
 30
0
0
VERTEX
8
23
6
CONTINUOUS
 10
-224.165298461914
 20
224.165298461914
 30
0
0
VERTEX
8
23
6
CONTINUOUS
 10
224.165298461914
 20
224.165298461914
 30
0
0
VERTEX
8
23
6
CONTINUOUS
 10
224.165298461914
 20
-224.165298461914
 30
0
0
SEQEND
0
3DFACE
5
49
8
0
6
CONTINUOUS
 10
-224.165298461914
 20
-224.165298461914
 30
62.99213
 11
-224.165298461914
 21
224.165298461914
 31
62.99213
 12
224.165298461914
 22
224.165298461914
 32
62.99213
 13
224.165298461914
 23
-224.165298461914
 33
62.99213
0
3DFACE
5
49
8
0
6
CONTINUOUS
 10
-224.165298461914
 20
-224.165298461914
 30
0
 11
-224.165298461914
 21
224.165298461914
 31
0
 12
224.165298461914
 22
224.165298461914
 32
0
 13
224.165298461914
 23
-224.165298461914
 33
0
0
ENDBLK
0
ENDSEC
0
SECTION
2
ENTITIES
 0
INSERT
 8
0
 2
LQFP-48_7X7X1_6-M
 10
0
 20
0
 30
0
 41
1
 42
1
 43
1
0
ENDSEC
 0
EOF

