 0
SECTION
 2
HEADER
 0
ENDSEC
 0
SECTION
 2
TABLES
 0
ENDSEC
 0
SECTION
 2
BLOCKS
0
BLOCK
70
0
2
LQFP-48_7X7X1_6-L
10
0
20
0
30
0
999
##### Poly 1 ####
0
POLYLINE
5
36
70
1
8
2
6
CONTINUOUS
66
1
10
0
20
0
30
0
39
62.99213
0
VERTEX
8
2
6
CONTINUOUS
 10
-203.1653
 20
-61.3976
 30
0
0
VERTEX
8
2
6
CONTINUOUS
 10
-203.1653
 20
-76.3976
 30
0
0
VERTEX
8
2
6
CONTINUOUS
 10
-193.1653
 20
-76.3976
 30
0
0
VERTEX
8
2
6
CONTINUOUS
 10
-193.1653
 20
-61.3976
 30
0
0
SEQEND
0
3DFACE
5
49
8
0
6
CONTINUOUS
 10
-203.1653
 20
-61.3976
 30
62.99213
 11
-203.1653
 21
-76.3976
 31
62.99213
 12
-193.1653
 22
-76.3976
 32
62.99213
 13
-193.1653
 23
-61.3976
 33
62.99213
0
3DFACE
5
49
8
0
6
CONTINUOUS
 10
-203.1653
 20
-61.3976
 30
0
 11
-203.1653
 21
-76.3976
 31
0
 12
-193.1653
 22
-76.3976
 32
0
 13
-193.1653
 23
-61.3976
 33
0
999
##### Poly 14 ####
0
POLYLINE
5
36
70
1
8
2
6
CONTINUOUS
66
1
10
0
20
0
30
0
39
62.99213
0
VERTEX
8
2
6
CONTINUOUS
 10
22.0276
 20
-193.1653
 30
0
0
VERTEX
8
2
6
CONTINUOUS
 10
22.0276
 20
-203.1653
 30
0
0
VERTEX
8
2
6
CONTINUOUS
 10
37.0276
 20
-203.1653
 30
0
0
VERTEX
8
2
6
CONTINUOUS
 10
37.0276
 20
-193.1653
 30
0
0
SEQEND
0
3DFACE
5
49
8
0
6
CONTINUOUS
 10
22.0276
 20
-193.1653
 30
62.99213
 11
22.0276
 21
-203.1653
 31
62.99213
 12
37.0276
 22
-203.1653
 32
62.99213
 13
37.0276
 23
-193.1653
 33
62.99213
0
3DFACE
5
49
8
0
6
CONTINUOUS
 10
22.0276
 20
-193.1653
 30
0
 11
22.0276
 21
-203.1653
 31
0
 12
37.0276
 22
-203.1653
 32
0
 13
37.0276
 23
-193.1653
 33
0
999
##### Poly 27 ####
0
POLYLINE
5
36
70
1
8
2
6
CONTINUOUS
66
1
10
0
20
0
30
0
39
62.99213
0
VERTEX
8
2
6
CONTINUOUS
 10
203.1653
 20
-2.3425
 30
0
0
VERTEX
8
2
6
CONTINUOUS
 10
203.1653
 20
-17.3425
 30
0
0
VERTEX
8
2
6
CONTINUOUS
 10
193.1653
 20
-17.3425
 30
0
0
VERTEX
8
2
6
CONTINUOUS
 10
193.1653
 20
-2.3425
 30
0
0
SEQEND
0
3DFACE
5
49
8
0
6
CONTINUOUS
 10
203.1653
 20
-2.3425
 30
62.99213
 11
203.1653
 21
-17.3425
 31
62.99213
 12
193.1653
 22
-17.3425
 32
62.99213
 13
193.1653
 23
-2.3425
 33
62.99213
0
3DFACE
5
49
8
0
6
CONTINUOUS
 10
203.1653
 20
-2.3425
 30
0
 11
203.1653
 21
-17.3425
 31
0
 12
193.1653
 22
-17.3425
 32
0
 13
193.1653
 23
-2.3425
 33
0
999
##### Poly 40 ####
0
POLYLINE
5
36
70
1
8
2
6
CONTINUOUS
66
1
10
0
20
0
30
0
39
62.99213
0
VERTEX
8
2
6
CONTINUOUS
 10
41.7126
 20
193.1653
 30
0
0
VERTEX
8
2
6
CONTINUOUS
 10
41.7126
 20
203.1653
 30
0
0
VERTEX
8
2
6
CONTINUOUS
 10
56.7126
 20
203.1653
 30
0
0
VERTEX
8
2
6
CONTINUOUS
 10
56.7126
 20
193.1653
 30
0
0
SEQEND
0
3DFACE
5
49
8
0
6
CONTINUOUS
 10
41.7126
 20
193.1653
 30
62.99213
 11
41.7126
 21
203.1653
 31
62.99213
 12
56.7126
 22
203.1653
 32
62.99213
 13
56.7126
 23
193.1653
 33
62.99213
0
3DFACE
5
49
8
0
6
CONTINUOUS
 10
41.7126
 20
193.1653
 30
0
 11
41.7126
 21
203.1653
 31
0
 12
56.7126
 22
203.1653
 32
0
 13
56.7126
 23
193.1653
 33
0
999
##### Poly 121 ####
0
POLYLINE
5
36
70
1
8
8
6
CONTINUOUS
66
1
10
0
20
0
30
0
39
62.99213
0
VERTEX
8
8
6
CONTINUOUS
 10
-141.795257568359
 20
-141.795257568359
 30
0
0
VERTEX
8
8
6
CONTINUOUS
 10
-141.795257568359
 20
-116.267723083496
 30
0
0
VERTEX
8
8
6
CONTINUOUS
 10
-190.480316162109
 20
-116.267723083496
 30
0
0
VERTEX
8
8
6
CONTINUOUS
 10
-190.480316162109
 20
116.267723083496
 30
0
0
VERTEX
8
8
6
CONTINUOUS
 10
-141.795257568359
 20
116.267723083496
 30
0
0
VERTEX
8
8
6
CONTINUOUS
 10
-141.795257568359
 20
141.795257568359
 30
0
0
VERTEX
8
8
6
CONTINUOUS
 10
-116.267723083496
 20
141.795257568359
 30
0
0
VERTEX
8
8
6
CONTINUOUS
 10
-116.267723083496
 20
190.480316162109
 30
0
0
VERTEX
8
8
6
CONTINUOUS
 10
116.267723083496
 20
190.480316162109
 30
0
0
VERTEX
8
8
6
CONTINUOUS
 10
116.267723083496
 20
141.795257568359
 30
0
0
VERTEX
8
8
6
CONTINUOUS
 10
141.795257568359
 20
141.795257568359
 30
0
0
VERTEX
8
8
6
CONTINUOUS
 10
141.795257568359
 20
116.267723083496
 30
0
0
VERTEX
8
8
6
CONTINUOUS
 10
190.480316162109
 20
116.267723083496
 30
0
0
VERTEX
8
8
6
CONTINUOUS
 10
190.480316162109
 20
-116.267723083496
 30
0
0
VERTEX
8
8
6
CONTINUOUS
 10
141.795257568359
 20
-116.267723083496
 30
0
0
VERTEX
8
8
6
CONTINUOUS
 10
141.795257568359
 20
-141.795257568359
 30
0
0
VERTEX
8
8
6
CONTINUOUS
 10
116.267723083496
 20
-141.795257568359
 30
0
0
VERTEX
8
8
6
CONTINUOUS
 10
116.267723083496
 20
-190.480316162109
 30
0
0
VERTEX
8
8
6
CONTINUOUS
 10
-116.267723083496
 20
-190.480316162109
 30
0
0
VERTEX
8
8
6
CONTINUOUS
 10
-116.267723083496
 20
-141.795257568359
 30
0
0
SEQEND
0
3DFACE
5
49
8
0
6
CONTINUOUS
 10
-141.795257568359
 20
-141.795257568359
 30
62.99213
 11
-141.795257568359
 21
-116.267723083496
 31
62.99213
 12
-190.480316162109
 22
-116.267723083496
 32
62.99213
 13
-190.480316162109
 23
116.267723083496
 33
62.99213
 14
-141.795257568359
 24
116.267723083496
 34
62.99213
 15
-141.795257568359
 25
141.795257568359
 35
62.99213
 16
-116.267723083496
 26
141.795257568359
 36
62.99213
 17
-116.267723083496
 27
190.480316162109
 37
62.99213
 18
116.267723083496
 28
190.480316162109
 38
62.99213
 19
116.267723083496
 29
141.795257568359
 39
62.99213
 20
141.795257568359
 30
141.795257568359
 40
62.99213
 21
141.795257568359
 31
116.267723083496
 41
62.99213
 22
190.480316162109
 32
116.267723083496
 42
62.99213
 23
190.480316162109
 33
-116.267723083496
 43
62.99213
 24
141.795257568359
 34
-116.267723083496
 44
62.99213
 25
141.795257568359
 35
-141.795257568359
 45
62.99213
 26
116.267723083496
 36
-141.795257568359
 46
62.99213
 27
116.267723083496
 37
-190.480316162109
 47
62.99213
 28
-116.267723083496
 38
-190.480316162109
 48
62.99213
 29
-116.267723083496
 39
-141.795257568359
 49
62.99213
0
3DFACE
5
49
8
0
6
CONTINUOUS
 10
-141.795257568359
 20
-141.795257568359
 30
0
 11
-141.795257568359
 21
-116.267723083496
 31
0
 12
-190.480316162109
 22
-116.267723083496
 32
0
 13
-190.480316162109
 23
116.267723083496
 33
0
 14
-141.795257568359
 24
116.267723083496
 34
0
 15
-141.795257568359
 25
141.795257568359
 35
0
 16
-116.267723083496
 26
141.795257568359
 36
0
 17
-116.267723083496
 27
190.480316162109
 37
0
 18
116.267723083496
 28
190.480316162109
 38
0
 19
116.267723083496
 29
141.795257568359
 39
0
 20
141.795257568359
 30
141.795257568359
 40
0
 21
141.795257568359
 31
116.267723083496
 41
0
 22
190.480316162109
 32
116.267723083496
 42
0
 23
190.480316162109
 33
-116.267723083496
 43
0
 24
141.795257568359
 34
-116.267723083496
 44
0
 25
141.795257568359
 35
-141.795257568359
 45
0
 26
116.267723083496
 36
-141.795257568359
 46
0
 27
116.267723083496
 37
-190.480316162109
 47
0
 28
-116.267723083496
 38
-190.480316162109
 48
0
 29
-116.267723083496
 39
-141.795257568359
 49
0
999
##### Poly 148 ####
0
POLYLINE
5
36
70
1
8
23
6
CONTINUOUS
66
1
10
0
20
0
30
0
39
62.99213
0
VERTEX
8
23
6
CONTINUOUS
 10
-208.165298461914
 20
-208.165298461914
 30
0
0
VERTEX
8
23
6
CONTINUOUS
 10
-208.165298461914
 20
208.165298461914
 30
0
0
VERTEX
8
23
6
CONTINUOUS
 10
208.165298461914
 20
208.165298461914
 30
0
0
VERTEX
8
23
6
CONTINUOUS
 10
208.165298461914
 20
-208.165298461914
 30
0
0
SEQEND
0
3DFACE
5
49
8
0
6
CONTINUOUS
 10
-208.165298461914
 20
-208.165298461914
 30
62.99213
 11
-208.165298461914
 21
208.165298461914
 31
62.99213
 12
208.165298461914
 22
208.165298461914
 32
62.99213
 13
208.165298461914
 23
-208.165298461914
 33
62.99213
0
3DFACE
5
49
8
0
6
CONTINUOUS
 10
-208.165298461914
 20
-208.165298461914
 30
0
 11
-208.165298461914
 21
208.165298461914
 31
0
 12
208.165298461914
 22
208.165298461914
 32
0
 13
208.165298461914
 23
-208.165298461914
 33
0
0
ENDBLK
0
ENDSEC
0
SECTION
2
ENTITIES
 0
INSERT
 8
0
 2
LQFP-48_7X7X1_6-L
 10
0
 20
0
 30
0
 41
1
 42
1
 43
1
0
ENDSEC
 0
EOF

