 0
SECTION
 2
HEADER
 0
ENDSEC
 0
SECTION
 2
TABLES
 0
ENDSEC
 0
SECTION
 2
BLOCKS
0
BLOCK
70
0
2
LQFP-48_7X7X1_6
10
0
20
0
30
0
999
##### Poly 1 ####
0
POLYLINE
5
36
70
1
8
2
6
CONTINUOUS
66
1
10
0
20
0
30
0
39
62.99213
0
VERTEX
8
2
6
CONTINUOUS
 10
-211.1653
 20
-61.3976
 30
0
0
VERTEX
8
2
6
CONTINUOUS
 10
-211.1653
 20
-76.3976
 30
0
0
VERTEX
8
2
6
CONTINUOUS
 10
-201.1653
 20
-76.3976
 30
0
0
VERTEX
8
2
6
CONTINUOUS
 10
-201.1653
 20
-61.3976
 30
0
0
SEQEND
0
3DFACE
5
49
8
0
6
CONTINUOUS
 10
-211.1653
 20
-61.3976
 30
62.99213
 11
-211.1653
 21
-76.3976
 31
62.99213
 12
-201.1653
 22
-76.3976
 32
62.99213
 13
-201.1653
 23
-61.3976
 33
62.99213
0
3DFACE
5
49
8
0
6
CONTINUOUS
 10
-211.1653
 20
-61.3976
 30
0
 11
-211.1653
 21
-76.3976
 31
0
 12
-201.1653
 22
-76.3976
 32
0
 13
-201.1653
 23
-61.3976
 33
0
999
##### Poly 14 ####
0
POLYLINE
5
36
70
1
8
2
6
CONTINUOUS
66
1
10
0
20
0
30
0
39
62.99213
0
VERTEX
8
2
6
CONTINUOUS
 10
22.0276
 20
-201.1653
 30
0
0
VERTEX
8
2
6
CONTINUOUS
 10
22.0276
 20
-211.1653
 30
0
0
VERTEX
8
2
6
CONTINUOUS
 10
37.0276
 20
-211.1653
 30
0
0
VERTEX
8
2
6
CONTINUOUS
 10
37.0276
 20
-201.1653
 30
0
0
SEQEND
0
3DFACE
5
49
8
0
6
CONTINUOUS
 10
22.0276
 20
-201.1653
 30
62.99213
 11
22.0276
 21
-211.1653
 31
62.99213
 12
37.0276
 22
-211.1653
 32
62.99213
 13
37.0276
 23
-201.1653
 33
62.99213
0
3DFACE
5
49
8
0
6
CONTINUOUS
 10
22.0276
 20
-201.1653
 30
0
 11
22.0276
 21
-211.1653
 31
0
 12
37.0276
 22
-211.1653
 32
0
 13
37.0276
 23
-201.1653
 33
0
999
##### Poly 27 ####
0
POLYLINE
5
36
70
1
8
2
6
CONTINUOUS
66
1
10
0
20
0
30
0
39
62.99213
0
VERTEX
8
2
6
CONTINUOUS
 10
211.1653
 20
-2.3425
 30
0
0
VERTEX
8
2
6
CONTINUOUS
 10
211.1653
 20
-17.3425
 30
0
0
VERTEX
8
2
6
CONTINUOUS
 10
201.1653
 20
-17.3425
 30
0
0
VERTEX
8
2
6
CONTINUOUS
 10
201.1653
 20
-2.3425
 30
0
0
SEQEND
0
3DFACE
5
49
8
0
6
CONTINUOUS
 10
211.1653
 20
-2.3425
 30
62.99213
 11
211.1653
 21
-17.3425
 31
62.99213
 12
201.1653
 22
-17.3425
 32
62.99213
 13
201.1653
 23
-2.3425
 33
62.99213
0
3DFACE
5
49
8
0
6
CONTINUOUS
 10
211.1653
 20
-2.3425
 30
0
 11
211.1653
 21
-17.3425
 31
0
 12
201.1653
 22
-17.3425
 32
0
 13
201.1653
 23
-2.3425
 33
0
999
##### Poly 40 ####
0
POLYLINE
5
36
70
1
8
2
6
CONTINUOUS
66
1
10
0
20
0
30
0
39
62.99213
0
VERTEX
8
2
6
CONTINUOUS
 10
41.7126
 20
201.1653
 30
0
0
VERTEX
8
2
6
CONTINUOUS
 10
41.7126
 20
211.1653
 30
0
0
VERTEX
8
2
6
CONTINUOUS
 10
56.7126
 20
211.1653
 30
0
0
VERTEX
8
2
6
CONTINUOUS
 10
56.7126
 20
201.1653
 30
0
0
SEQEND
0
3DFACE
5
49
8
0
6
CONTINUOUS
 10
41.7126
 20
201.1653
 30
62.99213
 11
41.7126
 21
211.1653
 31
62.99213
 12
56.7126
 22
211.1653
 32
62.99213
 13
56.7126
 23
201.1653
 33
62.99213
0
3DFACE
5
49
8
0
6
CONTINUOUS
 10
41.7126
 20
201.1653
 30
0
 11
41.7126
 21
211.1653
 31
0
 12
56.7126
 22
211.1653
 32
0
 13
56.7126
 23
201.1653
 33
0
999
##### Poly 121 ####
0
POLYLINE
5
36
70
1
8
8
6
CONTINUOUS
66
1
10
0
20
0
30
0
39
62.99213
0
VERTEX
8
8
6
CONTINUOUS
 10
-147.795257568359
 20
-147.795257568359
 30
0
0
VERTEX
8
8
6
CONTINUOUS
 10
-147.795257568359
 20
-128.267715454102
 30
0
0
VERTEX
8
8
6
CONTINUOUS
 10
-202.480316162109
 20
-128.267715454102
 30
0
0
VERTEX
8
8
6
CONTINUOUS
 10
-202.480316162109
 20
128.267715454102
 30
0
0
VERTEX
8
8
6
CONTINUOUS
 10
-147.795257568359
 20
128.267715454102
 30
0
0
VERTEX
8
8
6
CONTINUOUS
 10
-147.795257568359
 20
147.795257568359
 30
0
0
VERTEX
8
8
6
CONTINUOUS
 10
-128.267715454102
 20
147.795257568359
 30
0
0
VERTEX
8
8
6
CONTINUOUS
 10
-128.267715454102
 20
202.480316162109
 30
0
0
VERTEX
8
8
6
CONTINUOUS
 10
128.267715454102
 20
202.480316162109
 30
0
0
VERTEX
8
8
6
CONTINUOUS
 10
128.267715454102
 20
147.795257568359
 30
0
0
VERTEX
8
8
6
CONTINUOUS
 10
147.795257568359
 20
147.795257568359
 30
0
0
VERTEX
8
8
6
CONTINUOUS
 10
147.795257568359
 20
128.267715454102
 30
0
0
VERTEX
8
8
6
CONTINUOUS
 10
202.480316162109
 20
128.267715454102
 30
0
0
VERTEX
8
8
6
CONTINUOUS
 10
202.480316162109
 20
-128.267715454102
 30
0
0
VERTEX
8
8
6
CONTINUOUS
 10
147.795257568359
 20
-128.267715454102
 30
0
0
VERTEX
8
8
6
CONTINUOUS
 10
147.795257568359
 20
-147.795257568359
 30
0
0
VERTEX
8
8
6
CONTINUOUS
 10
128.267715454102
 20
-147.795257568359
 30
0
0
VERTEX
8
8
6
CONTINUOUS
 10
128.267715454102
 20
-202.480316162109
 30
0
0
VERTEX
8
8
6
CONTINUOUS
 10
-128.267715454102
 20
-202.480316162109
 30
0
0
VERTEX
8
8
6
CONTINUOUS
 10
-128.267715454102
 20
-147.795257568359
 30
0
0
SEQEND
0
3DFACE
5
49
8
0
6
CONTINUOUS
 10
-147.795257568359
 20
-147.795257568359
 30
62.99213
 11
-147.795257568359
 21
-128.267715454102
 31
62.99213
 12
-202.480316162109
 22
-128.267715454102
 32
62.99213
 13
-202.480316162109
 23
128.267715454102
 33
62.99213
 14
-147.795257568359
 24
128.267715454102
 34
62.99213
 15
-147.795257568359
 25
147.795257568359
 35
62.99213
 16
-128.267715454102
 26
147.795257568359
 36
62.99213
 17
-128.267715454102
 27
202.480316162109
 37
62.99213
 18
128.267715454102
 28
202.480316162109
 38
62.99213
 19
128.267715454102
 29
147.795257568359
 39
62.99213
 20
147.795257568359
 30
147.795257568359
 40
62.99213
 21
147.795257568359
 31
128.267715454102
 41
62.99213
 22
202.480316162109
 32
128.267715454102
 42
62.99213
 23
202.480316162109
 33
-128.267715454102
 43
62.99213
 24
147.795257568359
 34
-128.267715454102
 44
62.99213
 25
147.795257568359
 35
-147.795257568359
 45
62.99213
 26
128.267715454102
 36
-147.795257568359
 46
62.99213
 27
128.267715454102
 37
-202.480316162109
 47
62.99213
 28
-128.267715454102
 38
-202.480316162109
 48
62.99213
 29
-128.267715454102
 39
-147.795257568359
 49
62.99213
0
3DFACE
5
49
8
0
6
CONTINUOUS
 10
-147.795257568359
 20
-147.795257568359
 30
0
 11
-147.795257568359
 21
-128.267715454102
 31
0
 12
-202.480316162109
 22
-128.267715454102
 32
0
 13
-202.480316162109
 23
128.267715454102
 33
0
 14
-147.795257568359
 24
128.267715454102
 34
0
 15
-147.795257568359
 25
147.795257568359
 35
0
 16
-128.267715454102
 26
147.795257568359
 36
0
 17
-128.267715454102
 27
202.480316162109
 37
0
 18
128.267715454102
 28
202.480316162109
 38
0
 19
128.267715454102
 29
147.795257568359
 39
0
 20
147.795257568359
 30
147.795257568359
 40
0
 21
147.795257568359
 31
128.267715454102
 41
0
 22
202.480316162109
 32
128.267715454102
 42
0
 23
202.480316162109
 33
-128.267715454102
 43
0
 24
147.795257568359
 34
-128.267715454102
 44
0
 25
147.795257568359
 35
-147.795257568359
 45
0
 26
128.267715454102
 36
-147.795257568359
 46
0
 27
128.267715454102
 37
-202.480316162109
 47
0
 28
-128.267715454102
 38
-202.480316162109
 48
0
 29
-128.267715454102
 39
-147.795257568359
 49
0
999
##### Poly 148 ####
0
POLYLINE
5
36
70
1
8
23
6
CONTINUOUS
66
1
10
0
20
0
30
0
39
62.99213
0
VERTEX
8
23
6
CONTINUOUS
 10
-216.165298461914
 20
-216.165298461914
 30
0
0
VERTEX
8
23
6
CONTINUOUS
 10
-216.165298461914
 20
216.165298461914
 30
0
0
VERTEX
8
23
6
CONTINUOUS
 10
216.165298461914
 20
216.165298461914
 30
0
0
VERTEX
8
23
6
CONTINUOUS
 10
216.165298461914
 20
-216.165298461914
 30
0
0
SEQEND
0
3DFACE
5
49
8
0
6
CONTINUOUS
 10
-216.165298461914
 20
-216.165298461914
 30
62.99213
 11
-216.165298461914
 21
216.165298461914
 31
62.99213
 12
216.165298461914
 22
216.165298461914
 32
62.99213
 13
216.165298461914
 23
-216.165298461914
 33
62.99213
0
3DFACE
5
49
8
0
6
CONTINUOUS
 10
-216.165298461914
 20
-216.165298461914
 30
0
 11
-216.165298461914
 21
216.165298461914
 31
0
 12
216.165298461914
 22
216.165298461914
 32
0
 13
216.165298461914
 23
-216.165298461914
 33
0
0
ENDBLK
0
ENDSEC
0
SECTION
2
ENTITIES
 0
INSERT
 8
0
 2
LQFP-48_7X7X1_6
 10
0
 20
0
 30
0
 41
1
 42
1
 43
1
0
ENDSEC
 0
EOF

