**ABCDEFGHIJKLMNOPQRSTUVWXYZabcdefghijklmnopqrstuvwxyz**************************
**PARASOLID !"#$%&'()*+,-./:;<=>?@[\]^_`{|}~0123456789**************************
**PART1;
MC=AMD64;
MC_MODEL=Intel64 Family 6 Model 37 Stepping 5, GenuineIntel;
MC_ID=unknown;
OS=Windows_NT;
OS_RELEASE=unknown;
FRU=Parasolid Version 27.0, build 207,  1-23-2015;
APPL=SOLIDWORKS 2015-2015313;
SITE=;
USER=unknown;
FORMAT=text;
GUISE=transmit;
KEY=makeProjectedPlanarWire;
FILE=makeProjectedPlanarWire.x_t;
DATE=Thu Mar 09 14:16:35 2017;
**PART2;
SCH=SCH_2700207_26105;
USFLD_SIZE=0;
**PART3;
**END_OF_HEADER*****************************************************************
T51 : TRANSMIT FILE created by modeller version 270020723 SCH_2700207_26105_1300
6196 0 12 30 CCCCCCCCCCCCCDI5 owner1040 0 CCCCCCCCCA13 boundary_mesh1006 0 A16 i
ndex_map_offset0 0 1 dA9 index_map82 0 A17 node_id_index_map82 0 A20 schema_embe
dding_map82 0 A5 child12 0 A14 lowest_node_id0 0 1 dZ1 124 0 2 0 0 0 0 1e3 1e-8
 0 3 0 1 0 3 1 4 5 6 7 8 9 10 0 0 0 0 0 0 0 70 11 CI9 list_type0 0 1 uI10 notran
smit0 0 1 lCCCDCCDI12 finger_index0 0 1 dI12 finger_block1012 0 CZ2 0 4 T1 0 0 1
 20 1 11 11 13 255 4 121 0 1 0 12 0 0 8 12 54 255 5 53 0 1 13 0 14 +-.01005 .002
386603959968735 -.014 -123908819712629e-30 -1 0 .007 .001 1 -123908819712629e-30
 0 38 255 6 52 0 9 15 0 0 +5 16 17 18 18 29 255 7 113 0 10 19 0 -.01604999999999
19 .00324847537239021 -.0164814111717565 19 8 CCCCCCCA5 owner12 0 Z8 120 0 1 0 0
 4 V0 16 255 9 51 0 ?20 0 21 6 0 0 1 18 255 10 111 0 22 0 23 7 ?1 17 255 22 0 0
 0 0 10 24 25 0 26 +18 23 108 0 27 10 28 19 ?1 17 27 0 29 26 30 23 31 21 0 20 -1
8 28 105 0 30 23 32 33 ?1 29 19 110 0 23 33 7 -.01590048531701695 .0013866039599
68736 -.0178434127485048 29 33 107 0 28 34 19 -.01624642892853195 .0013866039599
68736 -.019 29 34 104 0 32 35 33 -.02005 .004139900969298485 -.02896311591169565
 18 32 102 0 36 28 37 34 ?1 29 35 101 0 37 38 34 -.02105 .00621288683759029 -.03
023341262760895 18 37 99 0 39 32 40 35 ?1 29 38 98 0 40 41 35 -.02105 .018789582
04940435 -.0176567174157949 18 40 96 0 42 37 43 38 ?1 29 41 95 0 43 44 38 -.0200
5 .01978958204940435 -.0133134348315898 18 43 93 0 45 40 46 41 ?1 29 44 92 0 46
 47 41 -.01875982044653715 .01978958204940435 -.009 18 46 90 0 48 43 49 44 ?1 29
 47 89 0 49 50 44 -.01705 .01906156235411075 -.00401160677426814 18 49 87 0 51 4
6 52 47 ?1 29 50 86 0 52 53 47 -.01605 .01738406261950385 -.002345823924669955 1
8 52 84 0 24 49 54 50 ?1 29 53 83 0 54 55 50 -.01505 .01621844755890795 -.000168
1564010607565 18 54 81 0 56 52 57 53 ?1 29 55 80 0 57 58 53 -.01705 .01985909804
991805 -.00321407107846084 18 57 78 0 59 54 60 55 ?1 29 58 77 0 60 61 55 -.01905
892767867015 .02078958204940435 -.009 18 60 75 0 62 57 63 58 ?1 29 61 74 0 63 64
 58 -.02005 .02078958204940435 -.0123134348315898 18 63 72 0 65 60 66 61 ?1 29 6
4 71 0 66 67 61 -.02205 .01878958204940435 -.021 18 66 69 0 68 63 69 64 ?1 29 67
 68 0 69 70 64 -.02205 .00777671144833696 -.03201287060106735 18 69 66 0 71 66 7
2 67 ?1 29 70 65 0 72 73 67 -.02005 .003411940946872685 -.0296910759341421 18 72
 63 0 74 69 75 70 ?1 29 73 62 0 75 76 70 -.01594732169639895 .000386603959968735
5 -.019 18 75 60 0 77 72 78 73 ?1 29 76 59 0 78 79 73 -.01569136687806825 .00038
6603959968736 -.0181442707135315 18 78 57 0 80 75 81 76 ?1 29 79 56 0 81 0 76 -.
01505 .002386603959968715 -.014 18 81 54 0 82 78 0 79 ?1 17 82 0 83 80 84 81 56
 85 0 86 +15 255 83 5 0 82 12 29 17 80 0 83 77 82 78 86 87 0 88 +17 84 0 83 82 5
9 54 89 90 0 0 +17 56 0 0 0 0 54 82 85 0 84 -16 85 7 0 ?82 87 0 91 0 0 1 17 86 0
 0 0 0 81 80 87 0 0 -16 87 9 0 ?80 92 85 93 0 0 1 16 92 12 0 ?77 94 87 95 0 0 1
 38 93 10 0 87 91 95 0 +96 97 98 99 100 30 255 91 8 0 85 0 93 0 +-.01505 .004915
65782588437 -.01147094613408434 0 -.707106781186547 -.707106781186548 30 95 13 0
 92 93 101 0 +-.0146377531183329 .0003866039599687355 -.01462174218012946 -.2865
63086007216 3550769376036275e-32 -.95806137472399 54 96 11 0 1 97 102 103 +-.010
05 .002386603959968735 -.014 -123908819712629e-30 -1 0 .007 .002 1 -123908819712
629e-30 0 50 255 97 2 0 12 0 96 104 +-.00860835325133112 -.00257482071422864 .00
257482071422864 -.920992174646089 -.275475420174531 .275475420174531 .2865630860
07216 -.95806137472399 0 40 255 4 98 0 1 4 .000445479639908045 .322914371458464
 ??-.01505 .002386603959968735 -.014 -.01522355043714465 .001040977931605592 -.0
1592585418235 -.01549282408569545 .000474509565425567 -.0173925804481153 -.01569
136687806825 .000386603959968736 -.0181442707135315 41 255 1 99 L-.01505 .002386
603959968735 -.014 41 1 100 L-.01569136687806825 .000386603959968736 -.018144270
7135315 14 255 12 1 105 ?0 0 83 4 97 -0 0 0 0 4 141 255 104 93 106 107 97 141 10
6 108 107 104 97 141 107 109 104 106 97 38 109 17 0 110 101 111 0 +102 97 112 11
3 114 16 110 16 0 ?71 115 94 109 0 0 1 32 255 101 15 0 94 95 109 0 +-.02205 .020
78958204940435 -.019 -.920992174646089 -.275475420174531 .275475420174531 -.3895
81075311249 .651239812111994 -.651239812111994 .02215325889959475 .0204029780894
356 30 111 20 0 115 109 116 0 +-.02205 .02078958204940435 -.019 0 .7071067811865
48 .707106781186548 54 102 18 0 1 96 117 118 +-.02005 .02078958204940435 -.019 -
1 0 0 .0184029780894356 .002 0 0 1 40 7 112 0 1 7 .000503672484098384 .391516590
7274105 ??-.02004975 .003411622609599325 -.02969055845074935 -.0211033504702278
 .00508043374708751 -.03154423141608355 -.0214381400273121 .00577312745753272 -.
031970833801212 -.02186748305464215 .00688479530975667 -.03229458101491045 -.021
9716888634752 .00725458038182637 -.0322731854086853 -.022039379551302 .007613420
88217179 -.032140654006064 -.022049999974678 .00777693644833697 -.03201264551640
865 41 1 113 L-.02004975 .003411622609599325 -.02969055845074935 41 1 114 L-.022
049999974678 .00777693644833697 -.03201264551640865 54 117 29 0 1 102 119 120 +-
.01705 .002335329221111245 -.009 1 0 0 .0164542528282931 .002 0 0 -1 141 118 109
 118 118 102 54 119 34 0 1 117 16 121 +-.01705 .002335329221111245 -.009 1 0 0 .
0164542528282931 .001 0 0 -1 141 120 108 120 120 117 38 108 28 0 90 122 123 0 +1
17 97 124 125 126 16 90 27 0 ?84 25 127 108 0 0 1 32 122 26 0 127 128 108 0 --.0
1353912719411706 .002335329221111245 -.009 -.920992174646089 -.275475420174531 .
275475420174531 -.389581075311249 .651239812111994 -.651239812111994 .0200373611
5932205 .0184542528282931 30 123 31 0 25 108 129 0 +-.01605 .00658729911798692 -
.01314258742618688 0 -.707106781186547 -.707106781186548 40 12 124 0 1 12 .00051
3300286473743 .39163955106083 ??-.0170502 .01985926400978825 -.00321457377510746
5 -.01603923902760825 .01867153392658945 -.001022375645997922 -.0155492922860982
 .017807888356212 -.000247990808296815 -.015330073786249 .01731765420550645 -531
556632096729e-20 -.0151671614042438 .01685894468707945 806370447613869e-19 -.015
09211049919495 .01656891311777995 4152185924053475e-20 -.01505289054613735 .0163
0006139512685 -962064774017256e-19 -.0150554493360554 .0161186101869613 -.000286
212443336859 -.01510642045961305 .01594877432423775 -.000626459175748063 -.01527
677669911145 .01582971855096665 -.001315063997644836 -.0161940294906679 .0161310
65586198 -.004080352245737775 -.0170502 .01657205425175075 -.00650178353314494 4
1 1 125 L-.0170502 .01985926400978825 -.003214573775107465 41 1 126 L-.0170502 .
01657205425175075 -.00650178353314494 16 25 30 0 ?22 130 90 123 0 0 1 38 129 33
 0 130 123 131 0 +119 16 132 133 134 16 130 32 0 ?135 136 25 129 0 0 1 32 131 37
 0 136 129 137 0 --.01353912719411706 .002335329221111245 -.009 -.92099217464608
9 -.275475420174531 .275475420174531 -.389581075311249 .651239812111994 -.651239
812111994 .0189515756037778 .0174542528282931 50 16 35 0 1 119 13 138 +-.0086083
5325133112 -.00257482071422864 .00257482071422864 -.920992174646089 -.2754754201
74531 .275475420174531 .286563086007216 -.95806137472399 0 40 9 132 0 1 9 .00023
20606882818365 .342532783421521 ??-.01705 .01906156235411075 -.00401160677426814
 -.01653513663408515 .01851326678786575 -.00283856861600487 -.0163836288693606 .
0182844177082188 -.002560884424476335 -.01620480177850995 .0179471715929888 -.00
2300261041281275 -.016141830729735 .017795449345036 -.00224145327855567 -.016087
66704836055 .01762879491615795 -.002227023214798045 -.0160612566046218 .01750901
83007228 -.00225850225364027 -.0160503110947729 .0174032895423984 -.002327637079
511605 -.01605 .01738406261950385 -.002345823924669955 41 1 133 L-.01705 .019061
56235411075 -.00401160677426814 41 1 134 L-.01605 .01738406261950385 -.002345823
924669955 54 13 46 0 1 16 5 139 +-.02005 .02078958204940435 -.019 -1 0 0 .018402
9780894356 .001 0 0 1 141 138 129 140 141 16 141 140 6 141 138 16 141 141 142 13
8 140 16 38 142 45 0 143 144 145 0 +13 16 146 147 148 16 143 44 0 ?149 150 151 1
42 0 0 1 30 144 43 0 151 152 142 0 +-.02105 .01692547939240555 -.019520820072793
65 0 .707106781186547 .707106781186548 32 145 48 0 150 142 15 0 +-.02205 .020789
58204940435 -.019 -.920992174646089 -.275475420174531 .275475420174531 -.3895810
75311249 .651239812111994 -.651239812111994 .02106747334405055 .0194029780894356
 40 7 146 0 1 7 .000341999348494716 .390806673677296 ??-.02005 .0041399009692984
85 -.02896311591169565 -.0206780335363689 .00512832349383811 -.0300743869715949
 -.02081147835169695 .00540805353959662 -.0302408006528752 -.020976575678496 .00
583817904907391 -.03036264216078395 -.02101976459385275 .00599491674098947 -.030
3502972174114 -.0210461823938983 .00614508841228058 -.03028844771692555 -.02105
 .0062128868375903 -.030233412627609 41 1 147 L-.02005 .004139900969298485 -.028
96311591169565 41 1 148 L-.02105 .0062128868375903 -.030233412627609 16 150 47 0
 ?30 21 143 145 0 0 1 30 15 50 0 21 145 6 0 +-.0149122981424581 .001386603959968
736 -.0145396237778675 -.286563086007216 3550769376036275e-32 -.95806137472399 1
6 21 49 0 ?31 9 150 15 0 0 1 17 31 0 0 0 0 28 27 21 0 0 +17 30 0 29 27 36 28 153
 150 0 31 +15 29 6 0 24 12 0 17 36 0 29 30 39 32 149 143 0 153 -17 153 0 0 0 0 3
2 30 150 0 0 -17 39 0 29 36 42 37 154 151 0 149 -17 149 0 0 0 0 37 36 143 0 0 +1
7 42 0 29 39 45 40 155 156 0 154 +17 154 0 0 0 0 40 39 151 0 0 +16 151 42 0 ?154
 143 156 144 0 0 1 16 156 40 0 ?42 151 157 152 0 0 1 16 157 38 0 ?45 156 136 137
 0 0 1 32 152 41 0 156 137 144 0 +-.02005 .01878958204940435 -.0143134348315898
 -.920992174646089 -.275475420174531 .275475420174531 .26392235975508 .078941086
5243481 .961308115475816 .0036300879380325 .001 30 137 39 0 157 131 152 0 +-.019
96474420599815 .01978958204940435 -.01302840062030082 -.286563086007216 0 -.9580
6137472399 17 45 0 29 42 48 43 158 157 0 155 +16 136 36 0 ?159 157 130 131 0 0 1
 17 159 0 0 0 0 49 48 136 0 0 +17 48 0 29 45 51 46 159 136 0 158 -17 51 0 29 48
 24 49 135 130 0 159 -17 158 0 0 0 0 46 45 157 0 0 -17 24 0 29 51 26 52 22 25 0
 135 -17 135 0 0 0 0 52 51 130 0 0 +17 26 0 29 24 27 10 20 9 0 0 -17 20 0 0 0 0
 23 26 9 0 0 +17 155 0 0 0 0 43 42 156 0 0 -141 139 142 139 139 13 16 127 25 0 ?
59 90 160 122 0 0 1 30 128 24 0 160 116 122 0 +-.02023928923012335 .020789582049
40435 -.01294628221803884 -.286563086007216 0 -.95806137472399 16 160 23 0 ?161
 127 162 128 0 0 1 32 116 22 0 162 111 128 0 +-.02005 .01878958204940435 -.01431
34348315898 -.920992174646089 -.275475420174531 .275475420174531 .26392235975508
 .0789410865243481 .961308115475816 .007260175876065 .002 16 162 21 0 ?163 160 1
15 116 0 0 1 17 163 0 0 0 0 66 65 162 0 0 +16 115 19 0 ?68 162 110 111 0 0 1 17
 68 0 83 65 71 66 164 115 0 163 +17 65 0 83 62 68 63 163 162 0 161 -17 71 0 83 6
8 74 69 165 110 0 164 +17 164 0 0 0 0 69 68 115 0 0 -17 74 0 83 71 77 72 166 94
 0 165 -17 165 0 0 0 0 72 71 110 0 0 -17 77 0 83 74 80 75 88 92 0 166 +17 166 0
 0 0 0 75 74 94 0 0 +16 94 14 0 ?166 110 92 101 0 0 1 17 88 0 0 0 0 78 77 92 0 0
 -17 62 0 83 59 65 60 161 160 0 167 -17 161 0 0 0 0 63 62 160 0 0 +17 59 0 83 84
 62 57 167 127 0 89 +17 167 0 0 0 0 60 59 127 0 0 -17 89 0 0 0 0 57 84 90 0 0 -1
41 121 129 121 121 119 81 255 1 105 124 168 12 0 0 0 0 169 80 255 1 168 170 171
 9000 1 1 1 1 1 1 1 1 0 FFFFTFTFFFFFFF1 82 255 1 169 1545409634 79 255 14 171 SW
EntUnchanged141 103 93 103 103 96 40 21 17 0 1 21 .000154913974280622 .391008016
0509215 ??-.01565132349677085 .00186396829098747 -.0165330300432086 -.0157386806
302811 .00151156635596863 -.0171774915612983 -.01591692625990785 .00138755027538
2296 -.0178974331511264 -.01605200018872835 .001457944826703354 -.01827862891361
105 -.0161779096275376 .001610520680663345 -.018547003893609 -.01628646722520145
 .00180883385832846 -.0187116294415966 -.01638551960809685 .0020582028238412 -.0
1879342058274205 -.0164580252884367 .002309698192515185 -.0187843321924043 -.016
50752465952025 .00256416214454976 -.01869535862564245 -.01653136667078465 .00282
1796752874835 -.0185174345983501 -.01651128930661675 .003118919985222705 -.01815
318706404285 -.01641231570637655 .003336516754852185 -.0176046935804343 -.016251
2634990754 .00338140254396937 -.0170213647514994 -.01606247607994345 .0032613687
5116535 -.0165102288538025 -.01593511181400545 .003099865478326905 -.01624591739
448035 -.01583761854082175 .002922708474838545 -.0160971268356566 -.015765905751
5106 .00274632185192335 -.01603375733900305 -.0157088895225047 .0025534430485491
15 -.0160360147769247 -.01566600584190645 .002329463977845855 -.0161166215851372
 -.0156445050825662 .00203550780417692 -.01633869464455685 -.01565132349677075 .
00186396829098728 -.0165330300432084 41 1 18 H-.01565132349677085 .0018639682909
8747 -.0165330300432086 141 14 6 14 14 5 74 4 CI16 index_map_offset0 0 1 dCCZ20
 11 1 0 0 105 0 0 0 0 0 0 0 0 0 0 0 0 0 0 0 0 0 0 0 1 0 
