**ABCDEFGHIJKLMNOPQRSTUVWXYZabcdefghijklmnopqrstuvwxyz**************************
**PARASOLID !"#$%&'()*+,-./:;<=>?@[\]^_`{|}~0123456789**************************
**PART1;
MC=AMD64;
MC_MODEL=Intel64 Family 6 Model 37 Stepping 5, GenuineIntel;
MC_ID=unknown;
OS=Windows_NT;
OS_RELEASE=unknown;
FRU=Parasolid Version 27.0, build 207,  1-23-2015;
APPL=SOLIDWORKS 2015-2015313;
SITE=;
USER=unknown;
FORMAT=text;
GUISE=transmit;
KEY=makeProjectedPlanarWire;
FILE=makeProjectedPlanarWire.x_t;
DATE=Wed Mar 15 18:12:17 2017;
**PART2;
SCH=SCH_2700207_26105;
USFLD_SIZE=0;
**PART3;
**END_OF_HEADER*****************************************************************
T51 : TRANSMIT FILE created by modeller version 270020723 SCH_2700207_26105_1300
6196 0 12 30 CCCCCCCCCCCCCDI5 owner1040 0 CCCCCCCCCA13 boundary_mesh1006 0 A16 i
ndex_map_offset0 0 1 dA9 index_map82 0 A17 node_id_index_map82 0 A20 schema_embe
dding_map82 0 A5 child12 0 A14 lowest_node_id0 0 1 dZ1 78 0 2 0 0 0 0 1e3 1e-8 0
 3 0 1 0 3 1 4 5 6 7 8 9 10 0 0 0 0 0 0 0 70 11 CI9 list_type0 0 1 uI10 notransm
it0 0 1 lCCCDCCDI12 finger_index0 0 1 dI12 finger_block1012 0 CZ2 0 4 T1 0 0 1 2
0 1 11 11 13 255 4 74 0 1 0 12 0 0 8 12 50 255 5 2 0 12 0 0 0 +.02425 .008 -2775
55756156289e-31 -1 0 0 0 0 1 30 255 6 31 0 9 13 0 0 +.02425 .008 -27755575615628
9e-31 0 0 -1 29 255 7 67 0 10 14 0 .02425 .008 -277555756156289e-31 19 8 CCCCCCC
A5 owner12 0 Z8 73 0 1 0 0 4 V0 16 255 9 30 0 ?15 0 16 6 0 0 1 18 255 10 65 0 17
 0 18 7 ?1 17 255 17 0 0 0 0 10 19 20 0 21 -18 18 62 0 22 10 23 14 ?1 17 22 0 24
 21 25 18 26 16 0 15 -18 23 59 0 25 18 27 28 ?1 29 14 64 0 18 28 7 .02425 .008 -
.0333 29 28 61 0 23 29 14 .02425 -.008 -.0333 29 29 58 0 27 30 28 .02425 -.008 -
277555756156289e-31 18 27 56 0 19 23 31 29 ?1 29 30 55 0 31 32 29 .02425 -.004 -
.01165 18 31 53 0 33 27 34 30 ?1 29 32 52 0 34 35 30 .02425 -.005 -.01265 18 34
 50 0 36 31 37 32 ?1 29 35 49 0 37 38 32 .02425 -.005 -.01565 18 37 47 0 39 34 4
0 35 ?1 29 38 46 0 40 41 35 .02425 -.004 -.01665 18 40 44 0 42 37 43 38 ?1 29 41
 43 0 43 44 38 .02425 .004 -.01665 18 43 41 0 45 40 46 41 ?1 29 44 40 0 46 47 41
 .02425 .005 -.01565 18 46 38 0 48 43 49 44 ?1 29 47 37 0 49 50 44 .02425 .005 -
.01265 18 49 35 0 51 46 52 47 ?1 29 50 34 0 52 0 47 .02425 .004 -.01165 18 52 32
 0 53 49 0 50 ?1 17 53 0 54 51 55 52 33 56 0 57 -15 255 54 6 0 53 12 24 17 51 0
 54 48 53 49 57 58 0 59 +17 55 0 54 53 36 31 60 61 0 0 +17 33 0 0 0 0 31 53 56 0
 55 +16 56 8 0 ?33 58 0 62 0 0 1 17 57 0 0 0 0 52 51 58 0 0 -16 58 10 0 ?51 63 5
6 64 0 0 1 16 63 12 0 ?59 65 58 66 0 0 1 31 255 64 11 0 58 62 66 0 +.02425 .004
 -.01265 -1 0 0 0 0 1 .001 30 62 9 0 56 0 64 0 +.02425 .005 -.01165 0 -1 0 30 66
 13 0 63 64 67 0 +.02425 .005 -.01665 2702820946089645e-29 0 1 31 67 15 0 65 66
 68 0 +.02425 .004 -.01565 -1 0 0 0 0 1 .001 16 65 14 0 ?45 69 63 67 0 0 1 30 68
 17 0 69 67 70 0 +.02425 -.005 -.01665 -3516485209907665e-45 1 -1301042606982604
e-31 16 69 16 0 ?71 72 65 68 0 0 1 31 70 19 0 72 68 73 0 +.02425 -.004 -.01565 -
1 0 0 0 0 1 .001 16 72 18 0 ?39 74 69 70 0 0 1 30 73 21 0 74 70 75 0 +.02425 -.0
05 -.01665 2702820946089645e-29 0 1 16 74 20 0 ?36 61 72 73 0 0 1 31 75 23 0 61
 73 76 0 +.02425 -.004 -.01265 -1 0 0 0 0 1 .001 16 61 22 0 ?55 20 74 75 0 0 1 3
0 76 25 0 20 75 77 0 +.02425 .008 -277555756156289e-31 0 -1 0 16 20 24 0 ?19 78
 61 76 0 0 1 30 77 27 0 78 76 13 0 +.02425 -.008 -277555756156289e-31 0 0 -1 16
 78 26 0 ?25 16 20 77 0 0 1 30 13 29 0 16 77 6 0 +.02425 .008 -.0333 0 -1 0 16 1
6 28 0 ?26 9 78 13 0 0 1 17 26 0 0 0 0 23 22 16 0 0 +17 25 0 24 22 19 23 79 78 0
 26 +15 24 7 0 19 12 0 17 19 0 24 25 21 27 17 20 0 79 +17 79 0 0 0 0 27 25 78 0
 0 -17 21 0 24 19 22 10 15 9 0 0 -17 15 0 0 0 0 18 21 9 0 0 +14 255 12 1 80 ?0 0
 54 4 5 -0 0 0 0 4 81 255 1 80 78 81 12 0 0 0 0 82 80 255 1 81 83 84 9000 1 1 1
 1 1 1 1 1 0 FFFFTFTFFFFFFF1 82 255 1 82 -279308118 79 255 14 84 SWEntUnchanged1
7 36 0 54 55 39 34 85 74 0 60 +17 39 0 54 36 42 37 86 72 0 85 +17 85 0 0 0 0 37
 36 74 0 0 -17 60 0 0 0 0 34 55 61 0 0 -17 42 0 54 39 45 40 71 69 0 86 -17 86 0
 0 0 0 40 39 72 0 0 -17 45 0 54 42 48 43 87 65 0 71 +17 71 0 0 0 0 43 42 69 0 0
 +17 48 0 54 45 51 46 59 63 0 87 -17 87 0 0 0 0 46 45 65 0 0 -17 59 0 0 0 0 49 4
8 63 0 0 +74 4 CI16 index_map_offset0 0 1 dCCZ20 11 1 0 0 80 0 0 0 0 0 0 0 0 0 0
 0 0 0 0 0 0 0 0 0 1 0 
